<?xml version="1.0" encoding="UTF-8" standalone="no"?>
<svg
   xmlns:dc="http://purl.org/dc/elements/1.1/"
   xmlns:cc="http://creativecommons.org/ns#"
   xmlns:rdf="http://www.w3.org/1999/02/22-rdf-syntax-ns#"
   xmlns:svg="http://www.w3.org/2000/svg"
   xmlns="http://www.w3.org/2000/svg"
   viewBox="0 0 385.33334 70.773468"
   height="70.773468"
   width="385.33334"
   xml:space="preserve"
   id="svg2"
   version="1.1"><metadata
     id="metadata8"><rdf:RDF><cc:Work
         rdf:about=""><dc:format>image/svg+xml</dc:format><dc:type
           rdf:resource="http://purl.org/dc/dcmitype/StillImage" /></cc:Work></rdf:RDF></metadata><defs
     id="defs6"><clipPath
       id="clipPath18"
       clipPathUnits="userSpaceOnUse"><path
         id="path16"
         d="M 0,53.08 H 289 V 0 H 0 Z" /></clipPath></defs><g
     transform="matrix(1.3333333,0,0,-1.3333333,0,70.773467)"
     id="g10"><g
       id="g12"><g
         clip-path="url(#clipPath18)"
         id="g14"><g
           transform="translate(0.2817,42.6113)"
           id="g20"><path
             id="path22"
             style="fill:#3fb654;fill-opacity:1;fill-rule:nonzero;stroke:none"
             d="m 0,0 h 12.391 c 0,0 11.245,-17.405 11.587,-17.873 0.336,-0.471 0.376,0 0.376,0 -0.525,2.691 -1.086,3.903 -1.086,8.206 V 0 H 35.612 V -32.244 H 23.268 c 0,0 -11.018,16.481 -11.353,16.934 -0.327,0.455 -0.376,0 -0.376,0 0.426,-2.226 0.8,-2.594 0.8,-6.458 V -32.244 H 0 Z" /></g><g
           transform="translate(53.0391,14.3848)"
           id="g24"><path
             id="path26"
             style="fill:#3fb654;fill-opacity:1;fill-rule:nonzero;stroke:none"
             d="m 0,0 h 9.753 l 1.18,-4.018 H 24.6 L 11.922,28.227 H -2.356 L -14.697,-4.018 H -1.031 Z M 2.313,7.658 3.994,14.2 c 0.36,1.324 0.618,3.226 0.618,3.226 0.045,0.294 0.444,0.294 0.517,-0.009 0.073,-0.45 0.265,-1.819 0.646,-3.186 L 7.494,7.658 Z" /></g><g
           transform="translate(110.1484,42.6113)"
           id="g28"><path
             id="path30"
             style="fill:#3fb654;fill-opacity:1;fill-rule:nonzero;stroke:none"
             d="M 0,0 -13.755,-32.244 H -24.689 L -38.443,0 h 13.472 l 4.711,-14.673 c 0.517,-1.573 0.892,-5.052 0.892,-5.052 0.093,-0.277 0.409,-0.252 0.461,0 0,0 0.376,3.479 0.887,5.052 L -13.475,0 Z" /></g><g
           transform="translate(112.8291,42.6113)"
           id="g32"><path
             id="path34"
             style="fill:#3fb654;fill-opacity:1;fill-rule:nonzero;stroke:none"
             d="M 0,0 H 23.889 V -8.811 H 13.005 v -3.077 h 9.94 v -8.383 h -9.94 v -3.163 h 11.259 v -8.81 H 0 Z" /></g><g
           transform="translate(142.3486,10.4775)"
           id="g36"><path
             id="path38"
             style="fill:#3fb654;fill-opacity:1;fill-rule:nonzero;stroke:none"
             d="m 0,0 h 12.626 v 10.347 c 0,0 0.08,0.369 0.315,0 L 18.512,0 h 14.893 l -7.73,10.479 c -0.708,0.936 -1.903,1.741 -2.165,1.92 -0.265,0.187 0,0.262 0,0.262 4.803,1.461 6.88,3.504 6.88,8.384 0,8.117 -6.787,11.196 -14.795,11.196 H 0 Z m 12.626,23.433 h 0.986 c 2.223,0 4.153,-0.295 4.153,-2.78 0,-2.393 -2.127,-2.693 -4.24,-2.693 h -0.899 z" /></g><path
           id="path40"
           style="fill:#6b6c6c;fill-opacity:1;fill-rule:nonzero;stroke:none"
           d="m 209.425,36.112 h -9.903 v 3.571 h 9.903 z m -2.435,16.916 v -5.033 c 0,0 2.435,-0.324 2.435,-3.407 h -9.904 c 0,0 0,7.467 -7.464,7.467 v -5.194 c 0,0 2.435,-0.162 2.435,-4.06 V 31.603 h 19.802 v 12.66 c 0,0 0.811,8.765 -7.304,8.765" /><path
           id="path42"
           style="fill:#6b6c6c;fill-opacity:1;fill-rule:nonzero;stroke:none"
           d="m 188.162,29.331 h 32.3 v -4.869 h -32.3 z" /><g
           transform="translate(194.3281,20.7266)"
           id="g44"><path
             id="path46"
             style="fill:#6b6c6c;fill-opacity:1;fill-rule:nonzero;stroke:none"
             d="M 0,0 H 19.985 V -12.498 H 5.193 v -3.57 h 14.792 v -4.706 H 0 v 12.985 h 15.097 v 2.921 L 0,-4.868 Z" /></g><g
           transform="translate(229.0645,45.5615)"
           id="g48"><path
             id="path50"
             style="fill:#6b6c6c;fill-opacity:1;fill-rule:nonzero;stroke:none"
             d="M 0,0 H 20.127 V -13.959 H 5.356 v -3.409 h 14.771 v -5.031 h -6.981 v -4.868 h 12.012 v -4.709 H -5.52 v 4.871 H 7.953 v 4.706 H 0.162 v 14.121 h 14.932 v 3.57 H 0.162 Z" /></g><g
           transform="translate(263.1504,43.127)"
           id="g52"><path
             id="path54"
             style="fill:#6b6c6c;fill-opacity:1;fill-rule:nonzero;stroke:none"
             d="m 0,0 v -5.031 h 14.933 v -13.634 h 6.005 V 0 Z" /></g><path
           id="path56"
           style="fill:#6b6c6c;fill-opacity:1;fill-rule:nonzero;stroke:none"
           d="m 258.121,14.396 h 31.16 v 5.196 h -31.16 z" /></g></g></g></svg>